# xmcd
#
# Track frame offsets: 
#        150
#        15283
#        34144
#        52375
#        69458
#        83787
#        102960
#        119806
#        135763
#        153592
#        168700
#        185539
#
# Disc length: 2841 seconds
#
# Revision: 7
# Processed by: cddbd v1.5.2PL0 Copyright (c) Steve Scherf et al.
# Submitted via: ExactAudioCopyFreeDBPlugin 1.0
#
DISCID=a20b170c
DTITLE=Gary Allan - Tough All Over
DYEAR=2005
DGENRE=Country
TTITLE0=Tough All Over
TTITLE1=Best I Ever Had
TTITLE2=I Just Got Back From Hell
TTITLE3=Ring
TTITLE4=Promise Broken
TTITLE5=Nickajack Cave (Johnny Cash's Redemption)
TTITLE6=Life Ain't Always Beautiful
TTITLE7=He Can't Quit Her
TTITLE8=What Kind Of Fool
TTITLE9=Puttin' Memories Away
TTITLE10=No Damn Good
TTITLE11=Putting My Misery On Display
EXTD=
EXTT0=
EXTT1=
EXTT2=
EXTT3=
EXTT4=
EXTT5=
EXTT6=
EXTT7=
EXTT8=
EXTT9=
EXTT10=
EXTT11=
PLAYORDER=
